<mxfile host="65bd71144e">
    <diagram id="KVFuVcc03fs0hjkJoKk9" name="Page-1">
        <mxGraphModel dx="594" dy="609" grid="1" gridSize="10" guides="1" tooltips="1" connect="1" arrows="1" fold="1" page="1" pageScale="1" pageWidth="850" pageHeight="1100" math="0" shadow="0">
            <root>
                <mxCell id="0"/>
                <mxCell id="1" parent="0"/>
                <mxCell id="3" value="" style="verticalLabelPosition=bottom;verticalAlign=top;html=1;shape=mxgraph.basic.rect;fillColor2=none;strokeWidth=1;size=20;indent=5;fillColor=#FFFFFF;strokeColor=#36393d;" parent="1" vertex="1">
                    <mxGeometry x="90" y="80" width="680" height="830" as="geometry"/>
                </mxCell>
                <mxCell id="4" value="&lt;p style=&quot;line-height: 1.2&quot;&gt;&lt;span style=&quot;font-size: 24px&quot;&gt;&amp;nbsp; Volume of Pyramid.&lt;/span&gt;&lt;/p&gt;" style="shape=partialRectangle;whiteSpace=wrap;html=1;top=0;left=0;fillColor=#FFFFFF;align=left;fontColor=#000000;strokeColor=#000000;" parent="1" vertex="1">
                    <mxGeometry x="90" y="80" width="680" height="60" as="geometry"/>
                </mxCell>
                <mxCell id="5" value="&lt;h1 style=&quot;padding: 0px ; font-size: 35px ; line-height: 1.35 ; letter-spacing: -0.02em ; margin: 24px 0px 24px 40px ; font-family: &amp;#34;roboto&amp;#34; , &amp;#34;helvetica&amp;#34; , &amp;#34;arial&amp;#34; , sans-serif ; font-weight: 400 ; font-style: normal ; text-indent: 0px ; text-transform: none ; word-spacing: 0px&quot;&gt;&lt;font color=&quot;#000000&quot;&gt;The formula for volume is:&lt;/font&gt;&lt;/h1&gt;" style="text;whiteSpace=wrap;html=1;fontSize=25;" parent="1" vertex="1">
                    <mxGeometry x="270" y="140" width="470" height="110" as="geometry"/>
                </mxCell>
                <mxCell id="6" value="&lt;span style=&quot;font-family: &amp;#34;helvetica&amp;#34; , &amp;#34;arial&amp;#34; , sans-serif ; font-size: 14px ; font-style: normal ; font-weight: 400 ; letter-spacing: normal ; text-indent: 0px ; text-transform: none ; word-spacing: 0px ; display: inline ; float: none&quot;&gt;&lt;font color=&quot;#000000&quot;&gt;The length(cm):&lt;/font&gt;&lt;/span&gt;" style="text;whiteSpace=wrap;html=1;fontSize=24;" parent="1" vertex="1">
                    <mxGeometry x="125" y="340" width="115" height="50" as="geometry"/>
                </mxCell>
                <mxCell id="8" value="" style="shape=image;verticalLabelPosition=bottom;labelBackgroundColor=#ffffff;verticalAlign=top;aspect=fixed;imageAspect=0;image=https://54ed5d0c-cdc0-4437-aef6-bcfcd6013bdc.id.repl.co/img/pyramid.png;" parent="1" vertex="1">
                    <mxGeometry x="110" y="150" width="171" height="164" as="geometry"/>
                </mxCell>
                <mxCell id="9" value="" style="shape=image;verticalLabelPosition=bottom;labelBackgroundColor=#ffffff;verticalAlign=top;aspect=fixed;imageAspect=0;image=https://54ed5d0c-cdc0-4437-aef6-bcfcd6013bdc.id.repl.co/img/formula.png;" parent="1" vertex="1">
                    <mxGeometry x="424.5" y="230" width="161" height="84" as="geometry"/>
                </mxCell>
                <mxCell id="a25ADer8J7fVHvlOVPEB-11" value="&lt;span style=&quot;font-family: &amp;#34;helvetica&amp;#34; , &amp;#34;arial&amp;#34; , sans-serif ; font-size: 14px ; font-style: normal ; font-weight: 400 ; letter-spacing: normal ; text-indent: 0px ; text-transform: none ; word-spacing: 0px ; display: inline ; float: none&quot;&gt;&lt;font color=&quot;#000000&quot;&gt;The width(cm):&lt;/font&gt;&lt;/span&gt;" style="text;whiteSpace=wrap;html=1;fontSize=24;" parent="1" vertex="1">
                    <mxGeometry x="125" y="400" width="115" height="50" as="geometry"/>
                </mxCell>
                <mxCell id="a25ADer8J7fVHvlOVPEB-16" value="&lt;span style=&quot;font-family: &amp;#34;helvetica&amp;#34; , &amp;#34;arial&amp;#34; , sans-serif ; font-size: 14px ; font-style: normal ; font-weight: 400 ; letter-spacing: normal ; text-indent: 0px ; text-transform: none ; word-spacing: 0px ; display: inline ; float: none&quot;&gt;&lt;font color=&quot;#000000&quot;&gt;The height(cm):&lt;/font&gt;&lt;/span&gt;" style="text;whiteSpace=wrap;html=1;fontSize=24;" parent="1" vertex="1">
                    <mxGeometry x="125" y="450" width="115" height="50" as="geometry"/>
                </mxCell>
                <mxCell id="11" value="" style="shape=partialRectangle;whiteSpace=wrap;html=1;top=0;left=0;fillColor=none;fontColor=#000000;strokeColor=#000000;" vertex="1" parent="1">
                    <mxGeometry x="125" y="380" width="125" height="10" as="geometry"/>
                </mxCell>
                <mxCell id="12" value="" style="shape=partialRectangle;whiteSpace=wrap;html=1;top=0;left=0;fillColor=none;fontColor=#000000;strokeColor=#000000;" vertex="1" parent="1">
                    <mxGeometry x="125" y="440" width="125" height="10" as="geometry"/>
                </mxCell>
                <mxCell id="13" value="" style="shape=partialRectangle;whiteSpace=wrap;html=1;top=0;left=0;fillColor=none;fontColor=#000000;strokeColor=#000000;" vertex="1" parent="1">
                    <mxGeometry x="125" y="490" width="125" height="10" as="geometry"/>
                </mxCell>
                <mxCell id="14" value="Button" style="labelPosition=center;verticalLabelPosition=middle;align=center;html=1;shape=mxgraph.basic.shaded_button;dx=10;fillColor=#E6E6E6;strokeColor=none;fontColor=#000000;" vertex="1" parent="1">
                    <mxGeometry x="125" y="525" width="87.5" height="50" as="geometry"/>
                </mxCell>
            </root>
        </mxGraphModel>
    </diagram>
</mxfile>